<svg xmlns="http://www.w3.org/2000/svg" viewBox="0 0 64 64" role="img" aria-label="SAGEMRO">
  <defs>
    <linearGradient id="sagemro-bg" x1="13" y1="7" x2="51" y2="59" gradientUnits="userSpaceOnUse">
      <stop stop-color="#ffd45a"/>
      <stop offset=".48" stop-color="#ff8a1f"/>
      <stop offset="1" stop-color="#b65a08"/>
    </linearGradient>
    <linearGradient id="sagemro-metal" x1="20" y1="20" x2="37" y2="46" gradientUnits="userSpaceOnUse">
      <stop stop-color="#f7f7f5"/>
      <stop offset="1" stop-color="#bfc5c9"/>
    </linearGradient>
  </defs>
  <circle cx="32" cy="32" r="30" fill="url(#sagemro-bg)"/>
  <path d="M12 50c5.1-8.5 13.1-12.8 24-12.8 7.4 0 12.9 2.5 16.7 7.5-4.8 6.2-11.7 10.3-19.7 10.8-8.6.5-15.6-1.3-21-5.5Z" fill="#21140a" opacity=".9"/>
  <path d="M17.6 45.8c4.1-5.5 10.1-8.2 18-8.2 4.8 0 8.6 1.1 11.4 3.4-4.2 4-9.4 6.5-15.5 7.3-5.8.8-10.4 0-13.9-2.5Z" fill="#ff7620"/>
  <path d="M38.8 19.7 51 23.5 44.2 45 32 41.2l6.8-21.5Z" fill="#fff4cf" stroke="#140c06" stroke-width="3" stroke-linejoin="round"/>
  <path d="m42 21.6 6.4 2-1 3.2-6.4-2 1-3.2Z" fill="#5b4636" stroke="#140c06" stroke-width="2"/>
  <path d="M21.4 16.8c.8-6.1 5.9-9.8 12-8.5 5.3 1.1 8.5 5.5 8.3 11.2l-20.3-2.7Z" fill="#ff7620" stroke="#140c06" stroke-width="3" stroke-linejoin="round"/>
  <path d="M17.3 20.8c2.7-4.7 19-5.8 28.8-1.9 3.8 1.5 4.2 4.4 2.4 5.8-9.2-2.9-21.2-3.3-30.3-.7-1.3-.7-1.6-1.8-.9-3.2Z" fill="#ffa24d" stroke="#140c06" stroke-width="3" stroke-linejoin="round"/>
  <path d="M23.1 22.3c5.1-.7 11.3-.5 16.3.3.5 3.2.1 6.1-1.2 8.8-1.2 2.4-2 4.2-2.2 5.4-.5 2.8-2.6 4.4-5.4 3.6l-7.3-2.3c-2.1-.7-3.4-2.6-3.3-4.8l.4-7.3c.1-1.8 1.2-3.2 2.7-3.7Z" fill="url(#sagemro-metal)" stroke="#140c06" stroke-width="3" stroke-linejoin="round"/>
  <circle cx="19.5" cy="30.2" r="5.3" fill="#f7f7f5" stroke="#140c06" stroke-width="3"/>
  <circle cx="19.5" cy="30.2" r="2.4" fill="#ffd84a"/>
  <path d="M27.2 39.5 26 45.2h8.4l-.9-4.2" fill="#d8dde0" stroke="#140c06" stroke-width="3" stroke-linejoin="round"/>
  <path d="M37.4 43.5c2.8-1.7 5.6-1.8 8.3-.3" fill="none" stroke="#f7f7f5" stroke-width="5" stroke-linecap="round"/>
  <path d="M37.4 43.5c2.8-1.7 5.6-1.8 8.3-.3" fill="none" stroke="#140c06" stroke-width="2" stroke-linecap="round"/>
</svg>
