<svg xmlns="http://www.w3.org/2000/svg" viewBox="0 0 64 64">
  <rect x="4" y="4" width="56" height="56" rx="17" fill="url(#bg)"/>
  <g opacity=".96">
    <rect x="29" y="10" width="6" height="10" rx="2.2" fill="#fff7d6"/>
    <rect x="29" y="10" width="6" height="10" rx="2.2" fill="#fff7d6" transform="rotate(45 32 32)"/>
    <rect x="29" y="10" width="6" height="10" rx="2.2" fill="#fff7d6" transform="rotate(90 32 32)"/>
    <rect x="29" y="10" width="6" height="10" rx="2.2" fill="#fff7d6" transform="rotate(135 32 32)"/>
    <rect x="29" y="10" width="6" height="10" rx="2.2" fill="#fff7d6" transform="rotate(180 32 32)"/>
    <rect x="29" y="10" width="6" height="10" rx="2.2" fill="#fff7d6" transform="rotate(225 32 32)"/>
    <rect x="29" y="10" width="6" height="10" rx="2.2" fill="#fff7d6" transform="rotate(270 32 32)"/>
    <rect x="29" y="10" width="6" height="10" rx="2.2" fill="#fff7d6" transform="rotate(315 32 32)"/>
  </g>
  <circle cx="32" cy="32" r="18.2" fill="rgba(255,255,255,.16)" stroke="#fff" stroke-width="3.2"/>
  <path d="M32 21.5 41.1 26.7v10.6L32 42.5l-9.1-5.2V26.7L32 21.5Z" fill="rgba(146,64,14,.32)" stroke="#fff7d6" stroke-width="2.8" stroke-linejoin="round"/>
  <circle cx="32" cy="32" r="4.6" fill="#fff7d6"/>
  <path d="M46 16.5v5.2M43.4 19.1h5.2" stroke="#fff7d6" stroke-width="2.1" stroke-linecap="round"/>
  <circle cx="46.7" cy="27.2" r="1.9" fill="#fff"/>
  <defs>
    <linearGradient id="bg" x1="12" y1="8" x2="52" y2="58" gradientUnits="userSpaceOnUse">
      <stop stop-color="#FBBF24"/>
      <stop offset=".52" stop-color="#F59E0B"/>
      <stop offset="1" stop-color="#92400E"/>
    </linearGradient>
  </defs>
</svg>
