<svg xmlns="http://www.w3.org/2000/svg" viewBox="0 0 64 64">
  <rect x="4" y="4" width="56" height="56" rx="16" fill="url(#bg)"/>
  <path d="M15 46.5h34L43.6 54H20.4L15 46.5Z" fill="#fff7d6" opacity=".96"/>
  <path d="M17.8 46.5h28.4" stroke="#2a1a0a" stroke-width="2.4" stroke-linecap="round" opacity=".42"/>
  <path d="M24 13h16l2.8 16.3-7.4 8.7h-6.8l-7.4-8.7L24 13Z" fill="#fff7d6" stroke="#fff" stroke-width="1.2"/>
  <path d="M26.2 15.5h11.6l1.9 11.4-5.9 6.7h-3.6l-5.9-6.7 1.9-11.4Z" fill="#2a1a0a" opacity=".18"/>
  <path d="M18 13h28" stroke="#fff7d6" stroke-width="4.2" stroke-linecap="round"/>
  <path d="M19.5 13h25" stroke="#2a1a0a" stroke-width="1.6" stroke-linecap="round" opacity=".35"/>
  <path d="M29 38h6l2.2 6.8H26.8L29 38Z" fill="#2a1a0a" opacity=".72"/>
  <path d="M32 40.5v9.5" stroke="url(#beam)" stroke-width="2.8" stroke-linecap="round"/>
  <circle cx="32" cy="50" r="2.2" fill="#fff7d6"/>
  <path d="m45.5 23.5 4 4 4-6" fill="none" stroke="#fff" stroke-width="2.6" stroke-linecap="round" stroke-linejoin="round" opacity=".95"/>
  <defs>
    <linearGradient id="bg" x1="12" y1="8" x2="52" y2="58" gradientUnits="userSpaceOnUse">
      <stop stop-color="#FCD34D"/>
      <stop offset=".5" stop-color="#F59E0B"/>
      <stop offset="1" stop-color="#92400E"/>
    </linearGradient>
    <linearGradient id="beam" x1="32" y1="40.5" x2="32" y2="50" gradientUnits="userSpaceOnUse">
      <stop stop-color="#fff"/>
      <stop offset="1" stop-color="#fef3c7"/>
    </linearGradient>
  </defs>
</svg>
